PathFileType	4	(X/Y/Z)	C:/Users/opensim2020/Desktop/walking_exp_matlab/subject03_walking07_straight_04.trc																																																																																																																																								
DataRate	CameraRate	NumFrames	NumMarkers	Units	OrigDataRate	OrigDataStartFrame	OrigNumFrames																																																																																																																																				
100	100	4	46	mm	100	3157	265																																																																																																																																				
Frame#	Time	LFHD			RFHD			LBHD			RBHD			C7			T10			CLAV			STRN			RBAK			LSHO			LUPA			LELB			LFRM			LWRA			LWRB			LFIN			RSHO			RUPA			RELB			RFRM			RWRA			RWRB			RFIN			LASI			RASI			LPSI			RPSI			LTHI			LKNE			LTIB			LANK			LHEE			LTOE			RTHI			RKNE			RTIB			RANK			RHEE			RTOE			*39			*40			*41			*42			*43			*44			*45		
		X1	Y1	Z1	X2	Y2	Z2	X3	Y3	Z3	X4	Y4	Z4	X5	Y5	Z5	X6	Y6	Z6	X7	Y7	Z7	X8	Y8	Z8	X9	Y9	Z9	X10	Y10	Z10	X11	Y11	Z11	X12	Y12	Z12	X13	Y13	Z13	X14	Y14	Z14	X15	Y15	Z15	X16	Y16	Z16	X17	Y17	Z17	X18	Y18	Z18	X19	Y19	Z19	X20	Y20	Z20	X21	Y21	Z21	X22	Y22	Z22	X23	Y23	Z23	X24	Y24	Z24	X25	Y25	Z25	X26	Y26	Z26	X27	Y27	Z27	X28	Y28	Z28	X29	Y29	Z29	X30	Y30	Z30	X31	Y31	Z31	X32	Y32	Z32	X33	Y33	Z33	X34	Y34	Z34	X35	Y35	Z35	X36	Y36	Z36	X37	Y37	Z37	X38	Y38	Z38	X39	Y39	Z39	X40	Y40	Z40	X41	Y41	Z41	X42	Y42	Z42	X43	Y43	Z43	X44	Y44	Z44	X45	Y45	Z45	X46	Y46	Z46
																																																																																																																																											
199	1.98	815.7066	1612.20496	963.44702	817.79205	1618.78796	1096.54285	684.85468	1575.79285	971.85773	692.63672	1582.01941	1101.97644	648.6665	1416.34143	1031.27319	618.21307	1099.29736	1032.37927	769.06036	1338.43884	1030.13928	814.77258	1175.41431	1021.64868	597.4939	1236.70007	1127.49658	724.83466	1374.03442	875.66711	736.47272	1177.36401	807.39594	759.45441	1055.73254	798.8233	810.80389	936.15039	804.34631	857.73669	829.0412	840.31213	831.7229	823.90485	790.88361	867.91077	748.74854	805.69763	726.539	1359.9408	1191.36121	730.51257	1138.40845	1266.94971	747.31323	1027.00281	1283.1665	767.80188	891.50385	1287.75159	800.54712	797.58679	1253.44556	770.19897	791.27612	1298.39343	796.65411	721.72473	1288.4707	785.27112	936.63354	909.20355	798.09705	946.41498	1147.7666	625.56836	951.53687	967.65948	634.63428	969.27527	1115.3075	768.96735	632.35828	856.49536	810.58215	457.48102	870.42432	664.83881	326.6514	889.14227	524.41766	179.99452	944.36578	476.29919	179.98618	990.20471	605.83472	55.74634	947.68182	758.13214	649.83197	1188.99744	780.48151	470.98294	1153.03918	744.42059	283.19791	1156.50195	729.67596	67.40059	1106.9989	685.88623	35.11839	1055.89624	872.28198	30.58047	1090.34619	NaN	NaN	NaN	NaN	NaN	NaN	NaN	NaN	NaN	NaN	NaN	NaN	NaN	NaN	NaN	NaN	NaN	NaN	NaN	NaN	NaN
200	1.99	824.38452	1612.10571	963.1449	826.77777	1618.84253	1096.25793	693.56213	1575.80884	971.93256	701.56921	1582.0249	1102.08057	657.30103	1416.4834	1031.19812	626.58411	1099.48462	1032.66455	777.64648	1338.48572	1030.10315	822.95526	1175.36816	1021.91895	606.00861	1237.1532	1127.61401	733.0979	1374.08374	875.60773	743.87329	1177.12939	807.90259	766.18823	1055.32898	799.46008	815.00171	934.59906	804.18079	859.15607	825.98364	839.20245	833.20355	821.92615	789.72925	867.36438	745.63654	804.03796	735.20959	1360.57898	1191.22217	741.39502	1139.33191	1267.10645	759.96588	1028.23218	1283.14819	782.36823	893.11603	1288.02576	816.1814	799.61603	1253.67664	786.3208	793.02618	1298.89404	813.85858	723.94629	1289.14587	793.74768	937.37762	910.00568	806.30505	946.65363	1148.60461	633.94971	951.99652	968.17847	642.99286	969.30707	1115.71545	782.75623	633.37042	856.60052	827.81116	459.38388	871.31158	685.46222	324.29584	889.45209	548.52838	174.20827	944.62952	499.87299	172.14162	990.16693	635.58435	54.19387	948.63287	765.3338	649.67877	1189.00989	785.55371	470.66754	1152.80603	747.4754	283.15344	1156.38818	730.67218	66.81683	1106.11462	685.88257	35.26798	1055.82104	872.36591	30.574	1090.24817	NaN	NaN	NaN	NaN	NaN	NaN	NaN	NaN	NaN	NaN	NaN	NaN	NaN	NaN	NaN	NaN	NaN	NaN	NaN	NaN	NaN
201	2	833.09924	1612.28552	962.68445	835.72913	1618.82141	1095.9043	701.82849	1575.92285	972.22925	710.75842	1582.01038	1102.26892	665.83197	1416.58191	1031.19897	634.72504	1099.85828	1033.1394	786.15759	1338.50183	1030.03955	831.16846	1175.29846	1022.22217	614.57928	1237.67529	1127.72144	741.21942	1374.20935	875.63477	751.22327	1176.94434	808.26569	772.6781	1055.17139	799.96667	819.02667	933.26001	803.91528	860.60364	823.19446	838.0899	834.64264	820.34503	788.35699	866.67578	742.84729	802.19806	743.78204	1361.28284	1191.15942	752.05823	1140.34656	1267.28699	772.34851	1029.55786	1283.2207	796.84882	894.86774	1288.28638	831.88544	801.79346	1253.95703	802.42871	794.95905	1299.35486	831.0257	726.29242	1289.72668	802.39288	938.10962	910.80005	814.52063	946.74902	1149.27014	642.52399	952.22375	968.32874	651.47229	969.22638	1116.09106	796.43353	634.5033	857.03528	844.19672	461.33591	872.39642	706.21033	321.7027	889.85626	573.47412	167.62096	944.84802	524.38678	163.30301	990.11292	666.22943	52.33593	949.56769	772.4859	649.45325	1189.06702	790.54816	470.3378	1152.66345	750.44965	283.10596	1156.33362	731.00714	66.93568	1105.95557	685.87701	35.34678	1055.83582	872.45435	30.56469	1090.18579	NaN	NaN	NaN	NaN	NaN	NaN	NaN	NaN	NaN	NaN	NaN	NaN	NaN	NaN	NaN	NaN	NaN	NaN	NaN	NaN	NaN
202	2.01	841.47461	1612.24731	962.43823	844.71179	1618.74121	1095.42896	710.71033	1575.99573	971.92468	719.62292	1582.20764	1102.15796	674.40735	1416.66272	1031.28381	643.04083	1099.96387	1033.31152	794.66968	1338.51147	1029.91907	839.34302	1175.22095	1022.54486	623.1806	1238.21265	1128.14478	749.55676	1374.15125	875.55829	758.27869	1176.67078	808.54242	778.68787	1054.58875	800.13422	822.97797	932.03595	803.43292	862.05353	820.62396	836.78748	835.98627	818.91937	787.03131	865.93317	740.35797	800.18298	752.37244	1361.96021	1191.01917	762.49567	1141.34595	1267.55005	784.39655	1030.89746	1283.41565	811.09491	896.69067	1288.64355	847.48547	804.00269	1254.07202	818.47437	796.95471	1299.71545	848.05579	728.63947	1290.24792	811.0705	938.66382	911.4342	822.67584	946.60156	1149.81885	651.17145	952.42352	968.43707	659.7887	969.16589	1116.40991	809.54877	636.09259	857.83655	860.82581	463.36844	873.73566	726.89191	318.9845	890.38354	599.24005	160.28244	944.9212	549.85168	153.66075	990.08246	697.7074	50.1939	950.53601	779.44507	649.13074	1189.11511	795.51074	469.94568	1152.56311	753.30048	283.02322	1156.24097	731.22998	67.081	1105.81567	685.87054	35.64833	1055.74988	872.5144	30.55136	1090.11646	763.02734	1679.34155	1016.61481	NaN	NaN	NaN	NaN	NaN	NaN	NaN	NaN	NaN	NaN	NaN	NaN	NaN	NaN	NaN	NaN	NaN	NaN
